PathFileType	4	(X/Y/Z)	Patient4_TMGait_0pt4_02_left_18.trc.trc
DataRate	CameraRate	NumFrames	NumMarkers	Units	OrigDataRate	OrigDataStartFrame	OrigNumFrames
74.074074074074	74.074074074074	4	33	mm	74.074074074074	53	       141
Frame#	Time	Sacral			L.Shoulder			Chest			R.Shoulder			Neck			R.ASIS			L.ASIS			R.Thigh.Superior			R.Thigh.Lateral			R.Thigh.Inferior			R.Patella			L.Thigh.Superior			L.Thigh.Lateral			L.Thigh.Inferior			L.Patella			L.Shank.Superior			L.Shank.Lateral			L.Shank.Inferior			R.Shank.Superior			R.Shank.Lateral			R.Shank.Inferior			R.Heel			R.Midfoot.Superior			R.Midfoot.Lateral			R.Toe			L.Heel			L.Midfoot.Lateral			L.Midfoot.Superior			L.Toe			L.Elbow			L.Wrist			R.Elbow			R.Wrist			
		X1	Y1	Z1	X2	Y2	Z2	X3	Y3	Z3	X4	Y4	Z4	X5	Y5	Z5	X6	Y6	Z6	X7	Y7	Z7	X8	Y8	Z8	X9	Y9	Z9	X10	Y10	Z10	X11	Y11	Z11	X12	Y12	Z12	X13	Y13	Z13	X14	Y14	Z14	X15	Y15	Z15	X16	Y16	Z16	X17	Y17	Z17	X18	Y18	Z18	X19	Y19	Z19	X20	Y20	Z20	X21	Y21	Z21	X22	Y22	Z22	X23	Y23	Z23	X24	Y24	Z24	X25	Y25	Z25	X26	Y26	Z26	X27	Y27	Z27	X28	Y28	Z28	X29	Y29	Z29	X30	Y30	Z30	X31	Y31	Z31	X32	Y32	Z32	X33	Y33	Z33	

53	24.822000000000	858.047210614152	1010.150675648206	428.175679652913	1063.790843039528	1426.644197214678	228.313723509451	1156.627038645673	1363.315364727977	396.859480782398	1068.265353420491	1446.728985040084	563.696889916073	1044.792874626546	1495.032892524180	378.046217256245	1085.554082748133	947.938957808324	546.799002919885	1074.351502548462	961.290779245356	273.570938101662	1169.568066815631	778.650780333820	524.466715586106	1129.279257464844	660.729472307360	606.124738316133	1221.654548633588	619.863406649867	531.402484511570	1241.833571623038	510.293694407476	559.143702281809	1121.252543578385	750.860996374641	297.993715860812	1030.140142807593	635.178331115165	244.593333118452	1116.501313229450	557.477352526439	304.919818337099	1116.353669067698	487.843764727931	315.503701283128	1086.113891863445	416.054286683684	309.070303598351	991.376739815523	304.627918958625	260.249205586066	1038.348254852336	192.271488111865	332.555844815445	1168.898009880184	432.892147713469	569.305950212133	1048.971633390172	391.635147649942	631.851600802215	1039.198555912742	279.539933255613	588.758822116901	843.158115808818	217.121434992173	566.085901631122	1008.769736379839	150.029498202596	602.616570625161	900.112328507103	152.959525145942	637.212338307631	1069.437921304795	34.059776205549	626.324264546549	906.927187987302	39.383756613971	378.816476260486	979.331623500409	35.359593499282	296.814234900551	1063.392584384755	96.326127044380	322.198222374747	1191.703119914098	42.057278305989	291.868507971593	1033.761755244641	1084.569797970208	89.570792107458	1193.954008096806	875.618129752238	76.785351719263	979.452048488800	1121.012862296146	708.159651090409	1002.336244464190	864.702896252572	750.148748880281	
54	24.835500000000	857.237444169197	1011.093178439701	426.519209380184	1065.279547549115	1427.146660579231	227.553931235382	1156.221463470875	1364.154985121552	397.199323725862	1066.127599331822	1447.988697647317	562.863876487848	1044.425246220095	1495.800744424824	377.177302790535	1083.907888297589	949.263088350347	547.167731462283	1074.652162763686	961.837436280275	273.885696110167	1169.341254057151	781.540897484148	524.664541915583	1130.479811456143	663.210768224570	606.470939521221	1222.844056866521	623.116637374297	531.428718309389	1244.828857985445	514.639482949144	559.514459661335	1119.011290374856	750.215134558917	298.679410320574	1026.677183644660	635.570188773431	244.474721521796	1111.713540491841	556.914812123190	305.278206493329	1110.689113768143	487.549773110902	315.838375312424	1080.590270134416	416.092129124634	309.109949860189	985.853837806487	304.713548786981	260.111125826656	1032.843130330303	192.355338020744	332.554655121068	1174.568032172701	435.377973763931	569.675818241240	1056.609703085207	389.019180291516	632.149383570008	1051.755276868110	276.532684217122	589.035384760227	858.631363600238	204.855093859784	566.219822927594	1027.024539568497	145.838710097077	602.597412590425	918.575755930545	143.656195171032	637.466138319889	1093.420535894529	33.503209616768	626.753112209634	901.421185639234	39.379178543659	378.765160994051	973.859303618289	35.338589040050	296.763291739095	1057.910555447273	96.324802916357	322.136041195750	1186.222519200845	42.134597217130	291.844627883422	1039.999333610213	1085.325338843181	87.559837473982	1203.719060944907	879.036305824046	76.681160605545	971.451476138914	1124.814403303850	708.310006895177	991.494646854490	868.739138875772	752.806104179041	
55	24.849000000000	856.482961527724	1011.977362336519	425.017752248248	1066.776036179811	1427.530081512394	226.942932111114	1155.842064717239	1364.916207362847	397.672080239810	1064.029895570953	1449.182329437970	562.147185748179	1044.039470092335	1496.479894463751	376.436857880777	1082.259068816306	950.454599921482	547.747563331565	1075.027914988164	962.319368946408	274.403737801163	1168.753914190100	783.902038964791	525.134501777311	1130.945801448660	665.206292933293	606.954358644871	1223.111567090681	625.652570383357	531.576038318872	1246.755539252210	518.560070704822	559.947611321692	1116.708206196302	749.528564834565	299.773974140960	1023.274966139924	635.948896360264	244.481369543952	1106.841258795571	556.347395382192	305.870062810313	1104.894256359086	487.257646270442	316.360564219996	1075.004398504542	416.132545760187	309.291050561912	980.357826224789	304.775324003060	260.073628173942	1027.336611013053	192.429193974641	332.650347651839	1179.609685308316	437.429854303236	570.189557861400	1064.284708132418	385.429401386450	632.825598659269	1064.896383962906	272.776443740870	589.629907458718	875.514164494119	191.015564493219	566.994743095259	1046.629767207854	141.075625080352	602.983634822525	938.714310677937	133.276431290436	638.298147378307	1119.160415337280	32.990317745653	627.468475874649	895.921056823983	39.356689923615	378.732183401635	968.385223538836	35.316120494879	296.728870996717	1052.425243381943	96.320029181176	322.112084550499	1180.739269784933	42.219836158753	291.833020879456	1046.177319623509	1085.991285520867	85.875836842853	1213.441258601509	882.483470394008	76.963763137056	963.926754666874	1128.364432158418	708.213042819238	981.763258407806	872.507383992838	754.783466696269	
56	24.862500000000	855.794616995036	1012.764167900495	423.683752036435	1068.246866001005	1427.765033575479	226.493483695571	1155.490563869287	1365.560925456297	398.272162335262	1062.002335994642	1450.256689399951	561.566992383959	1043.648880169686	1497.037336836630	375.841969928063	1080.633152504588	951.466643273741	548.511733363743	1075.474012197047	962.716929701118	275.097434687913	1167.778697120581	785.644954481948	525.829174910088	1130.618228850638	666.652013685318	607.556242943580	1222.410529172599	627.389460303852	531.841962751194	1247.555776439962	521.968669703560	560.412284534413	1114.375119818816	748.794026077671	301.209868695507	1019.975919610570	636.290118558499	244.589172321964	1101.960035454461	555.765913666037	306.640869999706	1099.062498177669	486.954758645960	317.019352897393	1069.430191617542	416.154356270334	309.582653372799	974.931274668815	304.806699953890	260.111809491232	1021.850575916546	192.479902184507	332.820550515474	1183.967576309151	439.047730315332	570.823347604618	1072.010389642927	381.019871802142	633.873860889514	1078.543138775964	268.511738557899	590.526071804838	893.856238746764	176.072743580898	568.394316086209	1067.438675509351	136.118778680397	603.784576399832	960.458875855277	122.300831499746	639.690334174462	1146.310313019846	32.859847575353	628.453235352481	890.430868198424	39.317732828716	378.713978016079	962.911037365950	35.291221729506	296.707500613407	1046.938136119223	96.310387752234	322.121188111254	1175.256482080445	42.306663877341	291.832375175187	1052.269433123684	1086.529862729812	84.525023300706	1223.116853104987	885.955230311485	77.611384650486	956.921106351066	1131.561462002302	707.878464489191	973.116654419249	875.893812202141	756.148227701241	
